<svg width="22" height="22" viewBox="0 0 22 22" fill="none" xmlns="http://www.w3.org/2000/svg">
<path d="M10.9998 7.33332V11M10.9998 14.6667H11.0089M9.43227 2.62165L1.66811 15.5833C1.50803 15.8605 1.42333 16.1748 1.42243 16.495C1.42154 16.8151 1.50447 17.1299 1.663 17.408C1.82152 17.6861 2.05011 17.9178 2.32601 18.0802C2.60191 18.2425 2.91551 18.3298 3.23561 18.3333H18.7639C19.084 18.3298 19.3976 18.2425 19.6735 18.0802C19.9494 17.9178 20.178 17.6861 20.3366 17.408C20.4951 17.1299 20.578 16.8151 20.5771 16.495C20.5762 16.1748 20.4915 15.8605 20.3314 15.5833L12.5673 2.62165C12.4039 2.35225 12.1738 2.12951 11.8992 1.97493C11.6246 1.82035 11.3149 1.73914 10.9998 1.73914C10.6847 1.73914 10.3749 1.82035 10.1003 1.97493C9.82578 2.12951 9.59569 2.35225 9.43227 2.62165Z" stroke="currentColor" stroke-width="1.4" stroke-linecap="round" stroke-linejoin="round"/>
</svg>
