<svg width="22" height="22" viewBox="0 0 22 22" fill="none" xmlns="http://www.w3.org/2000/svg">
<path d="M20.1666 11H14.6666L12.8333 13.75H9.16665L7.33331 11H1.83331M20.1666 11V16.5C20.1666 16.9862 19.9735 17.4525 19.6297 17.7963C19.2859 18.1401 18.8195 18.3333 18.3333 18.3333H3.66665C3.18042 18.3333 2.7141 18.1401 2.37028 17.7963C2.02647 17.4525 1.83331 16.9862 1.83331 16.5V11M20.1666 11L17.0041 4.68413C16.8524 4.37868 16.6184 4.12163 16.3285 3.94188C16.0387 3.76213 15.7044 3.66681 15.3633 3.66663H6.63665C6.29557 3.66681 5.9613 3.76213 5.67144 3.94188C5.38157 4.12163 5.14759 4.37868 4.99581 4.68413L1.83331 11" stroke="currentColor" stroke-width="1.4" stroke-linecap="round" stroke-linejoin="round"/>
</svg>
