<svg width="16" height="16" viewBox="0 0 16 16" fill="none" xmlns="http://www.w3.org/2000/svg">
<path d="M7.99985 5.33333V7.99999M7.99985 10.6667H8.00652M6.85985 1.90666L1.21319 11.3333C1.09677 11.5349 1.03516 11.7635 1.03451 11.9963C1.03386 12.2292 1.09418 12.4581 1.20947 12.6603C1.32476 12.8626 1.491 13.0312 1.69166 13.1492C1.89231 13.2673 2.12039 13.3308 2.35319 13.3333H13.6465C13.8793 13.3308 14.1074 13.2673 14.308 13.1492C14.5087 13.0312 14.6749 12.8626 14.7902 12.6603C14.9055 12.4581 14.9658 12.2292 14.9652 11.9963C14.9645 11.7635 14.9029 11.5349 14.7865 11.3333L9.13985 1.90666C9.02101 1.71073 8.85367 1.54874 8.65398 1.43632C8.4543 1.32389 8.22901 1.26483 7.99985 1.26483C7.7707 1.26483 7.54541 1.32389 7.34572 1.43632C7.14604 1.54874 6.9787 1.71073 6.85985 1.90666Z" stroke="currentColor" stroke-width="1.4" stroke-linecap="round" stroke-linejoin="round"/>
</svg>
