<svg width="92" height="32" viewBox="0 0 92 32" fill="none" xmlns="http://www.w3.org/2000/svg">
  <g clip-path="url(#clip0_3611_4191)">
    <path d="M54.4768 8.4188C54.4247 13.0056 50.7999 16.7291 46.3408 16.6751C41.8816 16.6212 38.309 12.8707 38.3351 8.25691C38.3873 3.64308 42.012 -0.0533795 46.4711 0.000583393C50.9564 0.0275648 54.529 3.80497 54.4768 8.4188Z" fill="#00CF91"/>
    <path d="M46.3921 10.5517V11.7929H42.4023V5.15546H46.34V6.3966H43.654V7.82662H46.1053V9.04079H43.654V10.5517H46.3921Z" fill="white"/>
    <path d="M51.0069 10.5516V11.7928H47.2778V5.15533H48.5556V10.5516H51.0069Z" fill="white"/>
    <path d="M59.4062 15.3259C59.4062 16.702 58.337 17.7812 57.0332 17.7812C55.7032 17.7812 54.6602 16.675 54.6602 15.3259C54.6602 13.9499 55.7293 12.8706 57.0332 12.8706C58.337 12.8706 59.4062 13.9768 59.4062 15.3259Z" fill="white"/>
    <path d="M34.3192 4.77578C31.7637 1.88876 26.4179 6.10352e-05 20.7591 6.10352e-05C19.716 6.10352e-05 18.6469 0.0540239 17.6038 0.188931C10.5891 1.07932 4.74779 4.23615 1.61854 8.84998C-0.0243217 11.1974 -0.441555 13.8685 0.471143 16.081C1.22738 17.8888 3.23532 20.1552 8.47681 20.8028C8.71151 20.8297 9.07659 20.8028 9.25913 20.3711L10.1197 18.5093C10.1718 18.4014 10.1718 18.2665 10.0936 18.1586C10.0414 18.0507 9.93713 17.9697 9.80675 17.9697C5.32148 17.565 3.75686 16.0001 3.20924 14.7589C2.66162 13.5178 2.94847 12.0068 3.99155 10.4958C6.59926 6.66448 11.6061 4.04728 17.7081 3.31878C18.5687 3.21085 19.4553 3.15689 20.3419 3.15689C25.114 3.15689 29.834 4.7488 31.8419 7.01524C32.5199 7.77072 32.8067 8.5262 32.7546 9.28168C32.4677 12.6274 25.6355 15.4874 20.2115 15.4874C20.0811 15.4874 19.9507 15.4874 19.8204 15.4874L22.2455 10.0102C22.3238 9.84829 22.2977 9.63244 22.1412 9.52451L20.4201 8.17544C20.3419 8.0945 20.2115 8.06751 20.0811 8.0945C17.8124 8.60714 14.5267 9.3896 13.0142 11.764C12.4405 12.6813 12.3101 13.7606 12.6491 14.8129C13.0664 16.108 14.2138 17.1872 15.7523 17.7808L10.3283 30.1383C10.2501 30.3002 10.2761 30.5161 10.4326 30.624L12.0494 31.9191C12.1276 31.9731 12.2058 32.0001 12.2841 32.0001C12.3101 32.0001 12.3623 32.0001 12.3884 31.9731C12.5188 31.9461 12.6231 31.8382 12.6752 31.7302L18.5165 18.4554C19.1163 18.5363 19.7421 18.5633 20.394 18.5633C23.7058 18.5633 27.4349 17.6459 30.3555 16.108C33.7194 14.3272 35.6752 11.8989 35.9099 9.2547C36.0925 7.66279 35.5188 6.12485 34.3192 4.77578ZM18.5426 11.4402L17.004 14.9748C16.3782 14.705 15.7784 14.2193 15.5959 13.6797C15.5437 13.4908 15.5437 13.3019 15.6741 13.113C16.0392 12.3306 17.5777 11.683 18.5426 11.4402Z" fill="white"/>
    <path d="M91.8461 24.3381L89.8382 22.9621C89.7599 22.9081 89.6295 22.8811 89.5252 22.9351C86.5785 24.0413 83.5536 25.903 81.2849 27.441C82.9016 22.9081 83.5014 21.1813 83.71 20.6147C83.7622 20.4798 83.7361 20.2909 83.6057 20.183L82.015 18.9418C81.9107 18.8609 81.7803 18.8339 81.676 18.8879C78.5207 20.183 76.2259 21.8288 74.3484 23.5826L75.2089 21.1273C75.261 20.9924 75.2089 20.8035 75.1046 20.7226L73.4878 19.4545C73.3574 19.3465 73.1488 19.3735 73.0445 19.5084C71.9493 20.6956 70.8019 21.3971 69.6284 21.559C69.4719 21.1003 69.2112 20.6956 68.8722 20.3449C68.1942 19.6703 67.2554 19.1577 64.9606 19.5624C64.8302 19.5894 64.752 19.6703 64.6998 19.7782C64.3869 20.6417 64.1261 21.3701 63.9957 21.7479C63.9436 21.9098 63.9697 22.0717 64.0479 22.2066C64.5434 22.8811 65.6386 23.5826 66.9946 23.9334C66.0037 26.6315 63.0309 29.5455 60.7622 29.1138C60.4493 29.0599 59.9016 28.6551 59.693 27.9806C59.5105 27.333 59.4583 25.5253 62.6919 22.2066C62.7701 22.1256 62.7962 22.0447 62.7962 21.9368C62.7962 21.8288 62.744 21.7479 62.6658 21.6669L61.1273 20.4528C60.9969 20.3449 60.8143 20.3718 60.6839 20.4798L54.5558 26.2268L56.4855 20.8575C56.5377 20.6956 56.4855 20.5337 56.3551 20.4528L54.7905 19.2386C54.6601 19.1577 54.5037 19.1577 54.3733 19.2386L47.8801 24.6889C47.6454 24.4191 47.4107 24.1762 47.2021 23.9604C46.6545 23.4207 46.159 22.9081 46.159 22.4494C46.159 22.2066 46.2894 21.64 47.1238 20.7226C47.176 20.6417 47.2282 20.5607 47.2021 20.4528C47.2021 20.3449 47.1499 20.2639 47.0717 20.2099L45.5071 18.9688C45.3767 18.8609 45.1941 18.8879 45.0898 18.9958C42.5343 21.2622 40.6046 22.9621 39.1703 24.2302C39.1443 24.2032 39.1182 24.1762 39.0921 24.1492C37.9186 23.016 37.3971 22.5304 38.9356 20.6416C38.9878 20.5607 39.0139 20.4798 39.0139 20.3718C39.0139 20.2639 38.9617 20.183 38.8835 20.129L37.3449 18.9148C37.2146 18.8069 37.032 18.8339 36.9016 18.9418L28.8699 27.1981L29.6783 25.0396C29.7565 24.8777 29.7043 24.7158 29.574 24.6079L27.8529 23.2858C27.7746 23.2319 27.6964 23.2049 27.5921 23.2049C27.4878 23.2319 27.4096 23.2858 27.3574 23.3398C24.0456 28.2234 22.0116 29.2757 20.6034 29.2757C18.074 29.2757 19.769 25.903 21.464 24.3111C22.6375 23.2049 25.7928 20.7226 30.1737 22.6922C30.3563 22.7732 30.5388 22.6922 30.617 22.5304L31.4254 20.7496C31.4776 20.6686 31.4776 20.5607 31.4254 20.4798C31.3994 20.3988 31.3211 20.3179 31.2429 20.2909C27.2009 18.4562 22.9243 19.3196 19.6907 22.3685C17.3177 24.6349 16.2225 27.5489 16.9526 29.6265C17.4481 31.0295 18.7259 31.9469 20.4731 31.9469C21.6987 31.9469 23.5762 31.5961 26.0536 29.1678L25.8971 30.0042C25.871 30.1391 25.9232 30.274 26.0275 30.355C26.1318 30.4359 27.2009 31.2723 27.6964 31.6501C27.8268 31.758 28.0093 31.731 28.1397 31.6231L35.6238 23.9334C35.9889 24.7968 36.6148 25.4443 37.1363 25.957C36.4062 26.6046 35.8846 27.0902 35.4935 27.441C34.32 28.4933 33.6159 29.0599 32.5989 29.8963C32.4946 29.9772 32.4164 30.2201 32.5989 30.355C32.5989 30.355 33.981 31.4342 34.4504 31.785C34.6329 31.9199 34.7111 32.0008 34.998 31.9739C36.8755 31.812 39.2486 30.6788 40.3438 28.4393C40.735 27.6568 40.761 26.9553 40.6046 26.3617C41.4651 25.6062 42.4821 24.6889 43.7338 23.5826C44.0728 24.527 44.7769 25.2555 45.3506 25.8491C45.5592 26.0379 45.7157 26.2268 45.82 26.3617C45.82 26.3617 42.2474 29.4106 41.2043 30.247C41.1 30.328 41.0218 30.5708 41.2043 30.7057C41.2043 30.7057 41.9867 31.4072 42.4561 31.758C42.6386 31.8929 42.7168 31.9739 43.0037 31.9469C45.1681 31.758 48.0105 30.247 48.7667 27.2791H48.7928L52.4697 24.1762L50.4096 29.9503C50.3574 30.0852 50.4096 30.274 50.5139 30.355L52.0003 31.5152C52.1307 31.6231 52.3132 31.5961 52.4436 31.4882L56.981 27.2521C56.981 27.7378 57.0332 28.3314 57.1375 28.6821C57.659 30.4629 59.0932 31.4612 60.1885 31.6771C63.422 32.3246 68.1681 29.0868 69.5241 24.2032C70.2021 24.1492 70.854 23.9873 71.5059 23.7445L69.3937 29.7344C69.3415 29.8693 69.3937 30.0582 69.5241 30.1391L71.1409 31.3803C71.2191 31.4342 71.3234 31.4612 71.4277 31.4342C71.532 31.4072 71.6102 31.3533 71.6624 31.2454C72.3404 29.9503 74.8699 25.4983 80.2939 22.4494C79.3551 25.0396 78.7815 26.6585 77.5558 30.1931C77.5037 30.355 77.5558 30.5169 77.6862 30.5978L79.3812 31.758C79.5116 31.839 79.6681 31.839 79.7724 31.758C81.1805 30.6518 87.0479 26.2808 91.7418 24.9587C91.8722 24.9317 91.9765 24.8238 91.9765 24.6619C92.0286 24.554 91.9765 24.4191 91.8461 24.3381Z" fill="white"/>
  </g>
  <defs>
    <clipPath id="clip0_3611_4191">
      <rect width="92" height="32" fill="white"/>
    </clipPath>
  </defs>
</svg>
